<?xml version="1.0" standalone="no"?>
<!DOCTYPE svg PUBLIC "-//W3C//DTD SVG 20010904//EN"
 "http://www.w3.org/TR/2001/REC-SVG-20010904/DTD/svg10.dtd">
<svg version="1.0" xmlns="http://www.w3.org/2000/svg"
 width="640.000000pt" height="640.000000pt" viewBox="0 0 640.000000 640.000000"
 preserveAspectRatio="xMidYMid meet">
<metadata>
Created by potrace 1.14, written by Peter Selinger 2001-2017
</metadata>
<g transform="translate(0.000000,640.000000) scale(0.100000,-0.100000)"
fill="#000000" stroke="none">
<path d="M0 3200 l0 -3200 3200 0 3200 0 0 3113 c0 1711 -3 3122 -6 3135 -9
32 -21 27 -34 -12 -6 -19 -18 -40 -27 -48 -15 -12 -16 -10 -10 20 6 30 -8 82
-23 82 -17 0 -19 -15 -4 -31 9 -10 13 -23 8 -30 -5 -9 -11 -7 -21 7 -13 18
-15 18 -24 1 -17 -30 -29 -8 -29 54 0 46 3 59 15 59 10 0 15 -10 15 -32 0 -29
1 -30 18 -16 22 19 47 13 60 -15 l11 -22 7 23 c3 12 14 22 25 22 16 0 19 8 19
45 l0 45 -3200 0 -3200 0 0 -3200z m5564 3149 c26 -12 40 -47 30 -73 -4 -11
-19 -16 -48 -16 -29 0 -37 -3 -26 -10 8 -5 26 -6 39 -3 17 4 22 2 19 -8 -3 -8
-21 -15 -45 -17 -37 -3 -41 0 -57 32 -18 39 -10 77 21 95 23 14 37 13 67 0z
m97 -41 l34 -43 5 45 c5 45 5 45 20 20 11 -18 24 -25 45 -25 25 0 30 -4 33
-27 3 -23 8 -28 30 -27 26 0 26 1 5 9 -13 5 -23 16 -23 25 0 17 46 39 61 29
15 -9 10 -24 -7 -24 -14 0 -14 -3 -4 -15 11 -14 14 -13 24 7 13 26 52 36 70
18 8 -9 5 -17 -14 -32 -23 -19 -23 -20 -3 -14 30 10 39 -12 10 -25 -18 -8 -30
-8 -46 1 -14 7 -27 8 -34 2 -7 -5 -47 -9 -89 -8 -69 1 -80 4 -105 29 -29 27
-50 37 -38 17 8 -13 -4 -50 -16 -50 -5 0 -9 29 -9 65 0 36 4 65 8 65 5 0 24
-19 43 -42z m460 0 l39 -43 -1 30 c-2 57 0 61 21 35 12 -15 18 -18 14 -7 -3 9
-2 17 4 17 10 0 22 -46 22 -87 0 -20 -4 -24 -20 -20 -11 3 -23 1 -26 -5 -4 -5
-21 5 -40 23 l-33 32 -7 -27 c-11 -46 -24 -28 -24 34 0 33 3 60 6 60 4 0 24
-19 45 -42z m-56 -98 c-3 -5 -28 -10 -55 -10 -27 0 -52 5 -55 10 -4 6 17 10
55 10 38 0 59 -4 55 -10z m-2621 -2066 c29 -11 16 -24 -24 -24 -38 0 -54 13
-27 23 18 8 33 8 51 1z m-886 -41 c2 -8 -6 -13 -21 -13 -34 0 -58 10 -51 22 8
13 67 6 72 -9z m925 -58 c4 -8 2 -17 -4 -21 -15 -9 -39 3 -39 21 0 19 36 20
43 0z m-1013 -16 c0 -32 39 -95 67 -108 13 -6 21 -16 18 -21 -16 -25 -151 0
-192 36 -15 13 -34 29 -40 35 -18 14 -16 39 2 39 8 0 15 4 15 9 0 10 66 28
108 30 16 1 22 -5 22 -20z m850 -7 c0 -10 16 -37 36 -60 l36 -42 -79 0 c-48 0
-84 -5 -91 -12 -9 -9 -15 -9 -24 0 -7 7 -8 12 -3 12 4 0 1 8 -8 18 -15 16 -15
20 -1 40 33 48 134 81 134 44z m313 7 c30 -16 30 -15 18 -37 -12 -22 -74 -55
-133 -70 -45 -12 -50 -2 -9 16 20 9 35 27 48 57 19 47 36 55 76 34z m-1011
-34 c0 -5 -5 -11 -11 -13 -6 -2 -11 4 -11 13 0 9 5 15 11 13 6 -2 11 -8 11
-13z m103 -52 c16 -15 15 -17 -7 -29 -12 -7 -36 -13 -52 -14 l-29 0 29 29 c35
35 38 35 59 14z m-18 -64 c-14 -8 -22 -8 -30 0 -8 8 -3 11 19 11 25 -1 27 -2
11 -11z m1377 -255 c8 -21 -1 -34 -24 -34 -25 0 -35 17 -20 35 16 20 36 19 44
-1z m-1186 -110 c-4 -21 -39 -26 -45 -8 -2 7 4 19 13 28 19 20 38 8 32 -20z
m382 -368 c0 -19 -63 -59 -142 -90 -138 -54 -328 -24 -353 56 -10 31 10 38
100 34 44 -2 103 0 130 4 28 4 98 8 158 9 84 1 107 -2 107 -13z m-120 -156 c0
-14 -39 -32 -56 -26 -19 7 -18 24 4 29 31 8 52 7 52 -3z"/>
<path d="M5540 6316 c0 -7 7 -19 15 -26 12 -10 15 -9 15 8 0 11 -7 22 -15 26
-9 3 -15 0 -15 -8z"/>
<path d="M5755 6277 c-4 -10 -5 -21 -1 -24 10 -10 18 4 13 24 -4 17 -4 17 -12
0z"/>
</g>
</svg>
